<?xml version="1.0" encoding="UTF-8" standalone="no"?><!DOCTYPE svg PUBLIC "-//W3C//DTD SVG 1.1//EN" "http://www.w3.org/Graphics/SVG/1.1/DTD/svg11.dtd"><svg width="100%" height="100%" viewBox="0 0 254 213" version="1.1" xmlns="http://www.w3.org/2000/svg" xmlns:xlink="http://www.w3.org/1999/xlink" xml:space="preserve" xmlns:serif="http://www.serif.com/" style="fill-rule:evenodd;clip-rule:evenodd;stroke-linejoin:round;stroke-miterlimit:2;"><path d="M203.554,187.454c-9.569,0 -14.794,-1.839 -15.85,-2.254c7.066,-8.588 13.025,-18.535 15.023,-29.548l-0.332,2.337c0,0 8.968,14.088 27.312,24.162c1.986,1.093 -12.911,5.301 -26.153,5.301m-76.697,10.358c-35.401,0 -64.102,-29.386 -64.102,-65.635c0,-2.34 0.13,-4.645 0.363,-6.922l127.477,0c0.234,2.274 0.363,4.582 0.363,6.922c0,36.249 -28.699,65.635 -64.102,65.635m-103.263,-15.32c-0.074,-0.028 -0.136,-0.057 -0.207,-0.082c6,-3.289 12.014,-7.623 17.625,-12.892c3.68,-3.46 6.764,-7.116 9.554,-10.789c0.194,-0.153 0.674,-0.662 0.674,-0.662c0,0 0.403,0.365 0.491,0.516c8.806,15.498 14.854,26.708 14.854,26.708c0,0 -14.574,7.504 -42.991,-2.797m9.545,-142.882c0,-12.775 42.075,-24.158 93.809,-24.158c51.731,0 93.534,11.383 93.534,24.158c0,6.669 -11.919,12.682 -30.215,16.903l0,0.028l-0.051,53.428l-126.97,0l-0,-43.231l-0.022,0l0,-10.146c-18.499,-4.224 -30.084,-10.269 -30.084,-16.982m220.733,140.519c-0.19,-4.861 -6.036,-7.089 -8.772,-8.107c-7.945,-2.961 -32.937,-12.784 -39.265,-46.766l0,-57.541c19.219,-7.185 31.058,-16.986 31.058,-27.79c0,-22.049 -49.286,-39.925 -110.081,-39.925c-60.797,0 -110.081,17.876 -110.081,39.925c0,10.789 11.809,20.577 30.983,27.762l0,57.567c-4.86,28.604 -27.876,41.846 -33.557,44.839c-1.213,0.637 -2.608,1.084 -3.883,1.796c-6.542,0.83 -10.273,4.889 -10.273,10.13c0,4.142 3.259,7.729 8.015,9.494c37.502,21.508 70.329,5.783 70.329,5.783l-0.086,-0.205c13.152,9.877 30.051,15.818 48.485,15.818c18.345,0 35.172,-5.881 48.297,-15.672l0.706,0.349c0,0 34.633,16.434 72.498,-7.638c4.547,-2.89 5.728,-7.28 5.628,-9.82" style="fill:#fff;fill-rule:nonzero;"/><path d="M102.326,145.614c0,4.775 -3.841,8.642 -8.576,8.642c-4.735,0 -8.576,-3.867 -8.576,-8.642c0,-4.775 3.841,-8.642 8.576,-8.642c4.735,0 8.576,3.867 8.576,8.642" style="fill:#fff;fill-rule:nonzero;"/><path d="M155.396,163.114c-1.302,-0.731 -3.212,-0.716 -5.175,-0.221c-5.349,5.044 -14.012,8.326 -23.798,8.326c-9.795,0 -18.469,-3.291 -23.816,-8.347c-1.709,-0.419 -3.338,-0.419 -4.512,0.241c-1.751,0.981 -2.545,3.031 -2.333,5.362c5.181,7.407 17.265,12.559 31.349,12.597c10.887,0.029 24.814,-4.634 30.418,-11.39c0.649,-2.813 -0.086,-5.424 -2.132,-6.571" style="fill:#fff;fill-rule:nonzero;"/><path d="M148.754,151.143c0.14,0.003 0.259,-0.086 0.396,-0.129c2.569,-0.789 6.097,-4.053 9.823,-4.053c3.753,0 7.062,3.167 9.598,3.949c0.171,0.051 0.327,0.162 0.498,0.161c2.673,-0.05 4.009,-2.423 4.009,-4.607c0,-4.477 -6.37,-8.106 -14.231,-8.106c-7.86,0 -14.23,3.629 -14.23,8.106c0,2.238 1.388,4.63 4.136,4.68" style="fill:#fff;fill-rule:nonzero;"/></svg>