<?xml version="1.0" encoding="UTF-8" standalone="no"?><!DOCTYPE svg PUBLIC "-//W3C//DTD SVG 1.1//EN" "http://www.w3.org/Graphics/SVG/1.1/DTD/svg11.dtd"><svg width="100%" height="100%" viewBox="0 0 250 210" version="1.1" xmlns="http://www.w3.org/2000/svg" xmlns:xlink="http://www.w3.org/1999/xlink" xml:space="preserve" xmlns:serif="http://www.serif.com/" style="fill-rule:evenodd;clip-rule:evenodd;stroke-linejoin:round;stroke-miterlimit:2;"><path d="M200.013,184.192c-9.402,0 -14.536,-1.807 -15.574,-2.215c6.943,-8.438 12.799,-18.212 14.762,-29.034l-0.326,2.297c0,0 8.813,13.842 26.837,23.742c1.951,1.074 -12.686,5.209 -25.698,5.209m-75.362,10.177c-34.785,0 -62.986,-28.874 -62.986,-64.492c0,-2.299 0.128,-4.565 0.357,-6.802l125.259,0c0.23,2.235 0.357,4.503 0.357,6.802c0,35.618 -28.199,64.492 -62.986,64.492m-101.466,-15.054c-0.073,-0.027 -0.133,-0.055 -0.204,-0.08c5.896,-3.231 11.805,-7.49 17.317,-12.669c3.617,-3.4 6.647,-6.992 9.388,-10.602c0.19,-0.151 0.662,-0.651 0.662,-0.651c0,0 0.396,0.359 0.483,0.507c8.653,15.229 14.595,26.243 14.595,26.243c0,0 -14.321,7.373 -42.243,-2.749m9.38,-140.395c0,-12.553 41.343,-23.738 92.177,-23.738c50.831,0 91.907,11.185 91.907,23.738c0,6.554 -11.712,12.46 -29.689,16.609l0,0.027l-0.051,52.499l-124.761,0l0,-42.48l-0.022,0l0,-9.969c-18.177,-4.151 -29.561,-10.091 -29.561,-16.686m216.892,138.074c-0.186,-4.777 -5.931,-6.965 -8.62,-7.967c-7.807,-2.91 -32.365,-12.562 -38.582,-45.952l0,-56.539c18.885,-7.061 30.518,-16.691 30.518,-27.306c0,-21.665 -48.428,-39.23 -108.166,-39.23c-59.739,0 -108.166,17.565 -108.166,39.23c0,10.602 11.603,20.219 30.444,27.279l0,56.566c-4.775,28.106 -27.39,41.117 -32.974,44.059c-1.192,0.627 -2.563,1.065 -3.816,1.765c-6.427,0.815 -10.095,4.804 -10.095,9.953c0,4.071 3.203,7.594 7.876,9.329c36.85,21.133 69.106,5.683 69.106,5.683l-0.084,-0.202c12.923,9.705 29.527,15.543 47.642,15.543c18.026,0 34.559,-5.778 47.456,-15.399l0.693,0.343c0,0 34.03,16.148 71.236,-7.506c4.467,-2.839 5.628,-7.154 5.53,-9.65" style="fill:#fff;fill-rule:nonzero;"/><path d="M100.546,143.081c0,4.691 -3.774,8.491 -8.427,8.491c-4.653,0 -8.427,-3.801 -8.427,-8.491c0,-4.691 3.774,-8.491 8.427,-8.491c4.653,0 8.427,3.801 8.427,8.491" style="fill:#fff;fill-rule:nonzero;"/><path d="M152.693,160.275c-1.28,-0.718 -3.156,-0.704 -5.085,-0.217c-5.256,4.957 -13.767,8.181 -23.384,8.181c-9.625,0 -18.148,-3.234 -23.401,-8.201c-1.679,-0.412 -3.28,-0.412 -4.434,0.237c-1.721,0.963 -2.5,2.979 -2.292,5.269c5.092,7.278 16.965,12.341 30.803,12.378c10.697,0.029 24.383,-4.554 29.889,-11.191c0.638,-2.764 -0.084,-5.329 -2.095,-6.456" style="fill:#fff;fill-rule:nonzero;"/><path d="M146.167,148.514c0.137,0.002 0.255,-0.084 0.39,-0.126c2.525,-0.775 5.991,-3.982 9.652,-3.982c3.688,0 6.939,3.112 9.431,3.88c0.168,0.051 0.321,0.159 0.489,0.157c2.627,-0.049 3.94,-2.381 3.94,-4.527c0,-4.399 -6.259,-7.964 -13.984,-7.964c-7.723,0 -13.982,3.566 -13.982,7.964c0,2.199 1.364,4.549 4.064,4.598" style="fill:#fff;fill-rule:nonzero;"/></svg>