<?xml version="1.0" encoding="UTF-8" standalone="no"?>
<!DOCTYPE svg PUBLIC "-//W3C//DTD SVG 1.1//EN" "http://www.w3.org/Graphics/SVG/1.1/DTD/svg11.dtd">
<svg width="100%" height="100%" viewBox="0 0 260 65" version="1.1" xmlns="http://www.w3.org/2000/svg" xmlns:xlink="http://www.w3.org/1999/xlink" xml:space="preserve" xmlns:serif="http://www.serif.com/" style="fill-rule:evenodd;clip-rule:evenodd;stroke-linejoin:round;stroke-miterlimit:2;">
    <g>
        <g transform="matrix(0,-0.092093,-0.092093,0,18.708824,13.79113)">
            <path d="M-203.152,-203.153C-315.35,-203.153 -406.305,-112.198 -406.305,-0.001C-406.305,112.198 -315.35,203.152 -203.152,203.152C-90.955,203.152 0,112.198 0,-0.001C0,-112.198 -90.955,-203.153 -203.152,-203.153ZM-137.63,-100.497C-116.92,-100.758 -100.032,-85.032 -99.89,-65.348C-99.769,-47.889 -112.9,-33.211 -130.326,-29.934L-130.126,-0.761L-49.469,-1.784L-49.284,24.445L-129.946,25.463L-129.697,61.941L-327.037,55.571C-342.287,55.043 -354.448,43.242 -354.563,28.613L-354.986,-32.775C-355.073,-47.402 -343.078,-59.502 -327.863,-60.432L-327.837,-60.434L-174.556,-69.246C-172.19,-86.659 -156.614,-100.259 -137.63,-100.497ZM-143.531,25.634L-180.303,26.101L-180.155,47.398L-143.371,48.585L-143.531,25.634ZM-58.397,15.952L-58.458,6.935L-130.069,7.84L-130.007,16.857L-58.397,15.952ZM-143.912,-29.762C-158.636,-32.129 -170.408,-42.663 -173.844,-56.36L-180.866,-55.961L-180.482,-0.122L-143.71,-0.589L-143.912,-29.762ZM-327.12,-47.545C-335.112,-47.049 -341.452,-40.662 -341.405,-32.944L-340.977,28.439C-340.928,36.165 -334.477,42.401 -326.475,42.682L-189.22,47.108L-189.364,26.214L-189.544,-0.009L-189.928,-55.437L-327.12,-47.545ZM-160.593,-70.057L-130.616,-71.771L-130.419,-43.213C-120.571,-46.134 -113.429,-54.888 -113.486,-65.177C-113.595,-77.726 -124.34,-87.733 -137.542,-87.586C-148.758,-87.434 -158.076,-79.984 -160.593,-70.057ZM-143.592,17.028L-143.654,8.011L-180.423,8.476L-180.361,17.494L-143.592,17.028ZM-159.889,-57.164C-157.331,-50.314 -151.419,-45.016 -144.002,-43.026L-144.104,-58.069L-159.889,-57.164Z" style="fill:white;"/>
        </g>
        <g transform="matrix(0,-0.092093,-0.092093,0,63.225276,13.79113)">
            <path d="M-203.152,-203.153C-315.35,-203.153 -406.305,-112.199 -406.305,-0.001C-406.305,112.198 -315.35,203.152 -203.152,203.152C-90.955,203.152 0,112.198 0,-0.001C0,-112.199 -90.955,-203.153 -203.152,-203.153ZM-237.724,-149.212L-237.799,-123.622L-222.854,-123.562C-205.655,-117.552 -192.837,-93.005 -192.954,-63.659C-193.033,-43.918 -198.961,-26.426 -208.075,-15.284C-205.176,-17.882 -202.053,-19.854 -198.758,-21.047L-183.48,-20.986C-179.096,-19.366 -175.03,-16.36 -171.408,-12.312C-167.545,-16.334 -163.219,-19.298 -158.571,-20.886L-142.407,-20.822C-137.746,-19.193 -133.426,-16.166 -129.579,-12.09C-125.704,-16.138 -121.361,-19.124 -116.691,-20.72L-100.527,-20.655C-83.327,-14.644 -70.51,9.903 -70.627,39.248C-70.743,68.542 -83.71,92.943 -100.911,98.873L-117.282,98.808C-121.896,97.166 -126.179,94.162 -129.99,90.113C-133.842,94.131 -138.154,97.108 -142.79,98.706L-159.161,98.641C-163.754,97.006 -168.02,94.024 -171.819,90.004C-175.448,93.993 -179.507,96.95 -183.869,98.542L-199.342,98.481C-204.103,96.689 -208.483,93.259 -212.322,88.63C-216.236,93.239 -220.694,96.627 -225.516,98.376L-238.454,98.324L-238.537,126.237C-238.561,133.746 -244.768,139.705 -252.418,139.524C-254.386,139.484 -256.286,139.002 -257.909,138.271L-258.032,138.216L-287.115,123.96C-296.457,119.287 -302.879,109.684 -302.855,98.769L-302.196,-124.804C-302.156,-135.491 -295.947,-144.639 -286.895,-148.98L-286.757,-149.049L-257.105,-162.141L-256.933,-162.203C-255.306,-162.844 -253.451,-163.209 -251.525,-163.164C-243.874,-162.977 -237.711,-156.734 -237.724,-149.212ZM-278.763,-132.824C-281.895,-131.245 -284.027,-128.095 -284.021,-124.376L-284.682,99.197C-284.709,103.051 -282.441,106.398 -279.229,108.032L-256.685,119.076L-255.911,-142.917L-278.763,-132.824ZM-101.972,82.075C-95.469,77.541 -89.39,60.85 -89.311,41.007C-89.235,21.919 -95.858,1.795 -101.72,-1.407L-111.948,-1.309L-112.28,82.034L-101.972,82.075ZM-226.525,81.579C-219.078,77.048 -212.125,60.36 -212.046,40.517C-211.97,21.429 -219.569,1.302 -226.284,-1.904L-238,-1.812L-238.333,81.531L-226.525,81.579ZM-184.418,81.747C-177.09,77.215 -170.246,60.527 -170.167,40.684C-170.091,21.596 -177.568,1.469 -184.176,-1.736L-195.706,-1.643L-196.038,81.7L-184.418,81.747ZM-226.116,-20.839C-218.67,-25.371 -211.717,-42.057 -211.638,-61.901C-211.562,-80.988 -219.159,-101.115 -225.875,-104.321L-237.592,-104.23L-237.924,-20.886L-226.116,-20.839ZM-143.851,81.908C-137.348,77.373 -131.269,60.683 -131.19,40.84C-131.114,21.752 -137.738,1.628 -143.599,-1.574L-153.826,-1.476L-154.159,81.867L-143.851,81.908Z" style="fill:white;"/>
        </g>
        <g transform="matrix(0,-0.092093,-0.092093,0,107.741728,13.791084)">
            <path d="M-203.153,-203.153C-315.351,-203.153 -406.306,-112.198 -406.306,-0C-406.306,112.198 -315.351,203.153 -203.153,203.153C-90.956,203.153 -0.001,112.198 -0.001,-0C-0.001,-112.198 -90.956,-203.153 -203.153,-203.153ZM-242.022,-119.602L-242.268,-90.509C-233.113,-97.052 -221.181,-101.096 -208.147,-101.26L-107.939,-102.44C-92.188,-102.625 -79.514,-92.453 -79.602,-79.69C-79.727,-66.943 -92.577,-56.466 -108.329,-56.277L-108.511,-56.276L-109.836,-56.26L-110.94,74.617L-243.675,76.179L-243.895,102.101C-243.954,108.155 -250.045,113.135 -257.531,113.226C-259.415,113.249 -261.228,112.94 -262.813,112.413L-262.98,112.362L-291.863,101.602L-291.998,101.546C-300.811,97.984 -306.797,90.575 -306.733,81.974L-305.212,-97.976C-305.13,-106.761 -298.755,-114.443 -289.569,-118.133L-260.978,-129.39L-260.857,-129.433C-259.263,-130.009 -257.399,-130.382 -255.474,-130.4C-247.987,-130.488 -241.973,-125.646 -242.022,-119.602ZM-127.61,-56.05L-203.012,-55.163L-203.995,61.33L-128.593,60.443L-127.61,-56.05ZM-108.206,-70.657C-102.278,-70.738 -97.437,-74.685 -97.384,-79.481C-97.354,-84.286 -102.134,-88.115 -108.061,-88.056L-208.25,-86.877C-227.064,-86.645 -242.416,-74.119 -242.536,-58.901L-243.554,61.796L-221.769,61.539L-220.663,-69.335L-118.589,-70.535L-108.23,-70.657L-108.206,-70.657ZM-282.008,-105.255C-285.166,-103.963 -287.418,-101.286 -287.429,-98.185L-288.947,81.765C-288.989,84.757 -286.934,87.309 -283.885,88.603L-261.627,96.897L-259.846,-113.974L-282.008,-105.255Z" style="fill:white;"/>
        </g>
        <g transform="matrix(0,-0.092093,-0.092093,0,152.25818,13.79113)">
            <path d="M-203.152,-203.153C-315.35,-203.153 -406.305,-112.199 -406.305,-0.001C-406.305,112.198 -315.35,203.152 -203.152,203.152C-90.955,203.152 0,112.198 0,-0.001C0,-112.199 -90.955,-203.153 -203.152,-203.153ZM-236.447,-123.714L-236.568,-98.256L-127.059,-99.848L-104.412,-100.202L-104.324,-100.202C-93.812,-100.282 -85.372,-92.255 -85.339,-82.18C-85.34,-78.071 -83.779,-73.917 -81.847,-71.595C-78.238,-67.048 -76.502,-61.676 -76.347,-56.028L-76.345,-55.866L-76.346,-55.708C-76.569,-50.036 -78.316,-44.694 -81.885,-40.068C-83.991,-37.497 -85.553,-33.257 -85.59,-29.633C-85.6,-26.003 -84.04,-21.751 -82.097,-19.447C-78.499,-14.874 -76.751,-9.519 -76.597,-3.871L-76.594,-3.775L-76.596,-3.68L-76.596,-3.64L-76.598,-3.501C-76.806,2.13 -78.609,7.565 -82.248,12.225C-84.214,14.592 -85.816,18.9 -85.843,22.51L-85.841,22.527C-85.839,26.147 -84.319,30.349 -82.236,32.864C-78.709,37.372 -77.013,42.679 -76.847,48.335L-76.846,48.478L-76.847,48.663C-77.056,54.294 -78.847,59.73 -82.518,64.41C-84.451,66.759 -86.053,70.967 -86.093,74.988L-86.094,75.094C-86.237,85.16 -94.751,93.409 -105.252,93.652L-128.007,93.932L-237.496,95.599L-237.638,124.337C-237.669,131.491 -243.74,137.383 -251.231,137.492C-253.111,137.517 -254.921,137.167 -256.512,136.539L-256.666,136.484L-285.56,123.772L-285.695,123.703C-294.504,119.484 -300.514,110.733 -300.461,100.552L-299.511,-98.104C-299.45,-108.49 -293.115,-117.578 -283.955,-121.952L-255.431,-135.268L-255.286,-135.332C-253.697,-136.015 -251.84,-136.437 -249.915,-136.465C-242.424,-136.575 -236.413,-130.859 -236.447,-123.714ZM-276.347,-106.721C-279.507,-105.188 -281.741,-102.022 -281.748,-98.363L-282.701,100.298C-282.729,103.86 -280.654,106.886 -277.582,108.414L-255.369,118.176L-254.243,-117.04L-276.347,-106.721ZM-134.568,-82.71L-170.089,-82.194L-170.858,77.578L-135.335,77.023L-134.568,-82.71ZM-202.04,78.053L-201.271,-81.741L-236.652,-81.225L-237.419,78.586L-202.04,78.053ZM-103.854,75.216L-103.853,75.148L-103.843,74.893C-103.644,67.359 -101.15,60.093 -96.531,54.231C-95.635,53.217 -94.641,50.65 -94.608,48.739C-94.631,46.797 -95.642,44.209 -96.378,43.419C-100.998,37.618 -103.459,30.463 -103.604,23.089L-103.602,23.038L-103.601,22.631L-103.601,22.524L-103.599,22.474C-103.374,15.087 -100.891,7.918 -96.272,2.066C-95.383,1.039 -94.4,-1.525 -94.359,-3.429C-94.379,-5.331 -95.342,-7.881 -96.218,-8.856C-100.781,-14.598 -103.2,-21.684 -103.354,-29.058L-103.351,-29.12L-103.352,-29.533L-103.35,-29.633L-103.351,-29.679C-103.133,-37.063 -100.608,-44.289 -95.929,-50.222C-95.172,-51.048 -94.151,-53.645 -94.109,-55.585C-94.12,-57.52 -95.092,-60.047 -95.959,-61.004C-100.541,-66.74 -102.968,-73.949 -103.102,-81.546L-103.102,-81.595L-103.1,-81.723L-103.101,-81.809C-103.088,-82.576 -103.744,-83.196 -104.534,-83.184L-122.729,-82.902L-123.497,76.859L-105.292,76.644C-104.509,76.621 -103.849,75.974 -103.854,75.216ZM-182.702,77.752L-181.935,-82.022L-189.425,-81.912L-190.192,77.861L-182.702,77.752Z" style="fill:white;"/>
        </g>
        <g transform="matrix(0,-0.092093,-0.092093,0,196.774632,13.791084)">
            <path d="M-203.153,-203.153C-315.351,-203.153 -406.306,-112.198 -406.306,-0.001C-406.306,112.198 -315.351,203.153 -203.153,203.153C-90.956,203.153 -0.001,112.198 -0.001,-0.001C-0.001,-112.198 -90.956,-203.153 -203.153,-203.153ZM-245.62,-124.216L-246.281,-81.896C-215.885,-85.393 -195.739,-88.844 -183.101,-91.469C-176.169,-92.915 -171.497,-94.107 -168.613,-94.914C-167.171,-95.323 -166.187,-95.631 -165.596,-95.831L-164.978,-96.03L-164.894,-96.063L-164.819,-96.093L-164.668,-96.148C-162.662,-96.83 -161.726,-97.08 -161.258,-97.184C-160.154,-97.45 -159.051,-97.596 -157.849,-97.585C-151.137,-97.467 -145.647,-92.592 -144.637,-86.194C-144.477,-85.109 -144.223,-84.03 -143.913,-83.001C-126.319,-80.623 -111.462,-73.647 -99.898,-61.838C-87.203,-48.94 -78.449,-30.976 -71.769,-7.918C-70.301,-2.817 -69.127,0.272 -68.408,1.945C-68.048,2.78 -67.794,3.267 -67.686,3.466L-67.659,3.517C-66.146,5.784 -65.219,8.487 -65.279,11.112C-65.314,14.037 -66.47,16.387 -67.527,17.808C-68.594,19.257 -69.576,19.988 -70.056,20.349C-72.811,22.387 -75.27,22.854 -77.234,23.231C-79.356,23.584 -81.063,23.593 -82.06,23.586L-82.974,23.551L-83.085,23.544L-83.178,23.535C-85.998,23.252 -88.526,22.669 -90.743,21.939C-93.85,32.813 -99.061,42.938 -106.776,51.49C-116.263,62.011 -129.478,69.898 -146.213,74.006C-146.614,75.168 -146.958,76.392 -147.174,77.624C-148.403,84.038 -154.052,88.739 -160.754,88.654C-161.956,88.631 -163.054,88.455 -164.15,88.155C-164.605,88.033 -165.542,87.762 -167.526,87.008L-167.674,86.96L-167.748,86.921L-167.776,86.909C-168.74,86.523 -188.316,79.085 -248.656,70.3L-249.315,112.624C-249.431,119.453 -255.074,124.911 -261.953,124.81C-263.687,124.783 -265.35,124.397 -266.804,123.755L-266.952,123.684L-293.352,110.761L-293.509,110.68C-301.564,106.418 -306.997,97.884 -306.855,88.175L-303.896,-101.51C-303.723,-111.436 -297.799,-119.942 -289.328,-123.856L-262.932,-135.79L-262.828,-135.839C-261.355,-136.452 -259.643,-136.807 -257.872,-136.779C-250.993,-136.671 -245.514,-131.053 -245.62,-124.216ZM-156.504,59.401C-155.601,58.283 -154.47,55.139 -154.404,52.661C-154.393,50.2 -155.398,47.063 -156.393,45.739C-160.595,39.582 -162.761,31.971 -162.796,24.067L-162.804,23.926L-162.792,23.805C-162.505,16.159 -160.085,8.655 -155.626,2.535C-154.713,1.418 -153.582,-1.731 -153.516,-4.229C-153.504,-6.726 -154.536,-9.905 -155.433,-11.058C-159.681,-17.3 -161.866,-24.873 -161.913,-32.526L-161.921,-32.666L-161.91,-32.788C-161.627,-40.691 -159.226,-48.224 -154.852,-54.25C-153.796,-55.548 -152.695,-58.658 -152.628,-61.118C-152.618,-63.598 -153.65,-66.775 -154.554,-67.957C-157.107,-71.677 -158.897,-75.909 -159.946,-80.353C-164.876,-78.7 -187.312,-72.039 -246.326,-65.361L-248.188,54.07C-189.42,62.532 -167.203,69.867 -162.318,71.666C-161.13,67.272 -159.209,63.078 -156.504,59.401ZM-178.462,0.834L-227.168,0.074L-226.999,-10.78L-178.293,-10.02L-178.462,0.834ZM-229.061,35.321L-227.179,24.65C-227.152,24.653 -192.764,30.619 -180.187,33.133L-182.349,43.749C-188.437,42.532 -200.162,40.42 -210.306,38.611C-220.451,36.818 -229.033,35.325 -229.061,35.321ZM-208.942,-48.77C-198.737,-50.264 -186.962,-52.022 -180.838,-53.06L-179.018,-42.38C-191.668,-40.249 -226.215,-35.33 -226.234,-35.325L-227.782,-46.044C-227.763,-46.046 -219.138,-47.274 -208.942,-48.77ZM-119.702,40.305C-111.921,31.684 -107.246,20.72 -105.251,8.125L-102.921,-6.731L-91.772,3.296C-91.633,3.408 -90.635,4.213 -89.053,5.039C-87.888,5.657 -86.415,6.271 -84.762,6.66C-85.712,4.265 -86.891,0.908 -88.236,-3.741C-94.471,-25.383 -102.391,-40.747 -112.332,-50.784C-119.373,-57.861 -127.448,-62.62 -137.55,-65.351C-137.393,-64.076 -137.291,-62.78 -137.266,-61.471L-137.268,-61.32L-137.27,-61.183C-137.528,-55.422 -139.238,-49.848 -142.659,-45.104C-144.725,-42.389 -146.411,-37.603 -146.56,-32.894C-146.553,-28.582 -145.043,-23.705 -142.927,-20.717C-139.738,-15.949 -138.24,-10.4 -138.154,-4.605L-138.154,-4.555L-138.156,-4.453L-138.157,-4.349L-138.158,-4.311C-138.425,1.48 -140.096,6.981 -143.422,11.647C-145.641,14.575 -147.301,19.404 -147.443,23.716C-147.442,28.432 -145.905,33.263 -143.924,36.053C-140.643,40.886 -139.118,46.505 -139.04,52.273L-139.042,52.403L-139.044,52.559C-139.071,53.045 -139.124,53.517 -139.16,53.996C-131.069,50.5 -124.72,45.832 -119.702,40.305ZM-281.682,-107.374C-284.584,-105.999 -286.701,-103.033 -286.737,-99.534L-289.696,90.151C-289.748,93.535 -287.892,96.468 -285.111,98.017L-264.734,107.987L-264.141,69.744L-261.831,-78.375L-261.23,-116.612L-281.682,-107.374Z" style="fill:white;"/>
        </g>
        <g transform="matrix(0,-0.092093,-0.092093,0,241.291084,13.79113)">
            <path d="M-203.152,-203.153C-315.35,-203.153 -406.305,-112.199 -406.305,-0.001C-406.305,112.198 -315.35,203.152 -203.152,203.152C-90.955,203.152 0,112.198 0,-0.001C0,-112.199 -90.955,-203.153 -203.152,-203.153ZM-254.062,-127.808L-254.589,-60.732L-240.633,-60.906L-240.618,-62.786C-240.529,-72.775 -232.131,-80.959 -221.776,-81.257C-218.061,-81.35 -214.414,-81.452 -210.816,-81.571L-173.634,-120.321C-166.67,-127.59 -157.146,-131.375 -147.714,-131.484C-139.193,-131.6 -130.607,-128.724 -123.918,-122.832C-116.487,-116.294 -112.722,-107.234 -112.807,-98.18C-112.818,-95 -113.345,-91.823 -114.305,-88.725L-110.7,-89.172C-107.855,-89.526 -105.665,-89.824 -104.216,-90.02L-102.03,-90.337L-92.723,-91.744L-94.035,75.388L-103.321,74.209L-105.503,73.955C-115.714,72.778 -161.109,68.029 -222.899,68.133C-233.301,68.085 -241.582,60.103 -241.504,50.117L-241.489,48.247L-255.445,48.422L-255.952,112.924C-256.008,119.499 -261.597,124.889 -268.456,124.974C-270.186,125.002 -271.841,124.667 -273.289,124.091L-273.434,124.032L-299.888,112.308L-300.009,112.254C-308.079,108.371 -313.557,100.312 -313.489,90.978L-311.956,-104.416C-311.876,-113.947 -306.03,-122.286 -297.62,-126.273L-271.409,-138.458L-271.306,-138.506C-269.848,-139.132 -268.144,-139.536 -266.38,-139.55C-259.521,-139.626 -254.011,-134.364 -254.062,-127.808ZM-288.7,-117.008C-291.597,-115.607 -293.662,-112.7 -293.679,-109.343L-295.212,86.052C-295.247,89.306 -293.358,92.08 -290.587,93.49L-270.195,102.521L-268.399,-126.445L-288.7,-117.008ZM-133.301,-91.156L-131.321,-91.36C-128.515,-94.704 -127.13,-98.687 -127.094,-102.699C-127.059,-107.6 -129.045,-112.401 -133.053,-115.95C-136.688,-119.132 -141.229,-120.646 -145.84,-120.598C-150.949,-120.525 -155.99,-118.526 -159.763,-114.598L-185.992,-87.263C-165.215,-88.326 -147.301,-89.784 -133.301,-91.156ZM-238.76,-50.011L-252.706,-49.836L-253.317,28.07L-239.371,27.895L-238.76,-50.011ZM-108.175,52.976L-107.144,-78.372C-124.792,-76.151 -166.189,-71.631 -219.678,-70.373C-221.111,-70.337 -222.339,-69.143 -222.336,-67.712L-223.221,45.191C-223.243,46.613 -222.038,47.776 -220.547,47.786C-167.121,47.698 -125.791,51.193 -108.175,52.976Z" style="fill:white;"/>
        </g>
    </g>
</svg>
