<?xml version="1.0" encoding="UTF-8" standalone="no"?>
<!DOCTYPE svg PUBLIC "-//W3C//DTD SVG 1.1//EN" "http://www.w3.org/Graphics/SVG/1.1/DTD/svg11.dtd">
<svg width="100%" height="100%" viewBox="0 0 255 51" version="1.1" xmlns="http://www.w3.org/2000/svg" xmlns:xlink="http://www.w3.org/1999/xlink" xml:space="preserve" xmlns:serif="http://www.serif.com/" style="fill-rule:evenodd;clip-rule:evenodd;stroke-linejoin:round;stroke-miterlimit:2;">
    <g transform="matrix(1,0,0,1,-2.355,-7.36498)">
        <g>
            <path d="M126.392,15.521C127.092,13.571 127.536,13.689 127.884,13.758C130.105,14.195 129.87,20.64 129.887,27.442L125.556,27.453C125.701,24.547 125.692,17.471 126.392,15.522M129.756,50.947C126.387,50.956 125.679,40.571 125.458,33.676L136.97,33.519L137.02,30.254C137.002,23.205 136.859,17.428 135.292,13.319C133.724,9.211 130.867,7.358 128.02,7.365C125.274,7.372 122.521,8.999 120.652,13.611C118.783,18.223 118.304,25.154 118.324,33.039C118.343,40.645 119.229,46.573 120.981,50.819C122.733,55.067 125.185,57.186 128.337,57.178C131.222,57.17 135.844,54.553 137.643,52.198L135.254,47.629C133.634,50.107 131.905,50.941 129.757,50.947" style="fill:white;fill-rule:nonzero;"/>
            <path d="M26.015,8.129C23.828,8.135 21.302,10.093 20.079,12.464C18.625,10.106 15.751,8.155 13.585,8.16C11.797,8.165 10.211,9.136 9.218,10.635L9.213,8.676L2.355,8.694L2.476,56.437L9.334,56.42L9.236,17.611C10.004,15.826 11.179,14.346 12.757,14.342C13.245,14.341 13.723,14.51 14.176,14.792L14.281,56.407L21.361,56.389L21.265,18.272C22.328,16.378 23.925,14.313 25.188,14.31C25.459,14.31 25.726,14.362 25.987,14.456L26.093,56.377L33.089,56.359L33.019,15.642C33.065,15.393 33.09,15.137 33.089,14.873C33.08,11.473 29.034,8.121 26.015,8.129" style="fill:white;fill-rule:nonzero;"/>
            <path d="M51.622,47.884C51.622,47.884 47.555,55.858 46.945,45.693C46.133,32.151 51.752,33.228 51.752,33.228L51.622,47.884ZM58.649,50.578C58.648,44.994 58.646,28.243 58.646,28.243C58.733,22.45 60.985,7.791 49.855,8.495C48.46,8.583 47.404,8.81 45.908,9.602C44.412,10.394 42.302,12.145 41.441,13.176L44.206,17.913C46.357,14.606 47.727,14.939 50.122,14.933C52.503,14.927 51.975,22.293 51.988,27.382C51.988,27.382 48.316,27.567 47.234,27.987C42.4,29.863 39.824,33.89 39.847,42.916C39.858,47.187 40.166,50.776 41.292,53.332C42.417,55.89 44.834,57.221 46.784,57.216C49.427,57.209 51.058,55.68 52.556,54.066C52.556,54.066 54.984,57.448 57.736,57.102C61.394,56.643 63.817,53.613 63.817,53.613L61.053,49.215C61.053,49.215 58.649,51.89 58.649,50.577" style="fill:white;fill-rule:nonzero;"/>
            <path d="M225.058,47.441C225.058,47.441 220.99,55.415 220.381,45.25C219.569,31.708 225.188,32.785 225.188,32.785L225.058,47.441ZM232.084,50.135C232.083,44.551 232.081,27.8 232.081,27.8C232.168,22.007 234.42,7.348 223.29,8.052C221.896,8.14 220.839,8.367 219.343,9.159C217.847,9.951 215.737,11.702 214.876,12.733L217.641,17.47C219.792,14.163 221.162,14.496 223.557,14.49C225.938,14.484 225.41,21.85 225.424,26.939C225.424,26.939 221.752,27.124 220.67,27.544C215.836,29.42 213.26,33.447 213.283,42.473C213.294,46.744 213.602,50.333 214.728,52.889C215.853,55.447 218.27,56.778 220.22,56.773C222.863,56.766 224.494,55.237 225.992,53.623C225.992,53.623 228.42,57.005 231.172,56.659C234.83,56.199 237.253,53.17 237.253,53.17L234.489,48.772C234.489,48.772 232.085,51.447 232.085,50.134" style="fill:white;fill-rule:nonzero;"/>
            <path d="M85.267,11.08C83.813,8.721 81.321,7.987 79.155,7.992C77.366,7.997 75.781,8.968 74.788,10.466L74.783,8.507L67.924,8.525L68.045,56.269L74.903,56.251L74.805,17.442C75.573,15.658 76.747,14.177 78.326,14.174C78.814,14.173 79.292,14.342 79.744,14.624L79.85,56.239L86.879,56.227L86.778,16.367C86.689,16.516 86.269,12.745 85.266,11.081" style="fill:white;fill-rule:nonzero;"/>
            <path d="M205.521,10.773C204.067,8.414 201.575,7.68 199.409,7.685C197.62,7.69 196.035,8.661 195.042,10.159L195.037,8.2L188.179,8.218L188.3,55.962L195.158,55.944L195.06,17.135C195.828,15.35 197.003,13.87 198.582,13.867C199.07,13.866 199.548,14.035 200,14.317L200.105,55.932L207.134,55.92L207.033,16.06C206.944,16.209 206.524,12.438 205.521,10.774" style="fill:white;fill-rule:nonzero;"/>
            <path d="M107.574,14.595C108.995,14.592 110.695,15.795 112.261,17.824L114.894,11.54C112.645,9.395 109.993,8.093 107.123,7.861C97.762,7.105 93.761,18.677 93.795,31.976C93.829,45.275 97.492,58.589 107.372,56.594C109.867,56.09 112.389,54.555 114.623,52.216L112.691,46.613C111.042,48.77 109.194,50.03 107.665,50.033C103.924,50.043 100.134,47.473 100.848,32.331C101.669,14.917 103.835,14.603 107.576,14.594" style="fill:white;fill-rule:nonzero;"/>
            <path d="M154.504,26.55C154.085,27.85 153.113,28.533 152.832,28.502L151.427,28.505L151.394,15.551L152.859,15.547C152.9,15.615 155.123,17.576 155.133,21.645C155.138,23.593 154.928,25.228 154.503,26.549M160.822,36.892C160.499,36.124 160.159,35.406 159.805,34.739C159.45,34.071 159.083,33.487 158.704,32.987C158.324,32.486 157.933,32.126 157.529,31.904L157.529,31.903C160.262,29.829 162.102,25.908 162.09,21.413C162.084,19.15 161.61,17.035 160.791,15.23C160.48,14.472 160.074,13.781 159.601,13.155C158.631,11.796 157.428,10.736 156.075,10.095C154.042,8.907 151.928,8.359 150.712,8.393L144.522,8.409L144.643,56.339L151.333,56.185L151.362,34.76C151.708,34.779 152.031,34.91 152.329,35.167C152.651,35.445 152.961,35.845 153.259,36.368C153.556,36.891 153.851,37.52 154.143,38.254C154.435,38.988 154.74,39.823 155.057,40.758L159.011,57.436L165.514,55.894L161.707,39.146C161.44,38.411 161.146,37.66 160.822,36.892" style="fill:white;fill-rule:nonzero;"/>
            <path d="M179.072,56.03L178.951,8.122L172.319,8.139L172.44,56.047L179.072,56.03Z" style="fill:white;"/>
            <path d="M247.042,16.571C249.186,10.931 254.06,15.881 254.748,16.149L256.845,10.582C255.274,8.494 252.634,7.426 249.899,7.432C244.647,7.445 240.399,11.95 240.414,17.495C240.439,26.525 244.902,32.477 246.518,35.512C247.081,36.569 251.555,45.337 249.656,47.914C246.154,52.666 241.366,46.554 241.025,47.078C240.582,47.756 239.254,53.208 239.254,53.208C239.254,53.208 248.995,61.181 254.519,52.661C258.284,46.854 256.534,40.231 252.822,33.001C248.977,25.512 246.128,18.978 247.042,16.573" style="fill:white;fill-rule:nonzero;"/>
        </g>
    </g>
</svg>
